# xmcd
#
# Track frame offsets:
#	150
#	14333
#	33110
#	51235
#	66171
#	78238
#	97004
#	112746
#	134096
#	150421
#	171316
#	187025
#	205918
#	221576
#	238378
#	258983
#	270086
#	288273
#	304113
#	318708
#	332532
#
# Disc length: 4612 seconds
#
# Revision: 0
# Processed by: cddbd v1.5.2PL0 Copyright (c) Steve Scherf et al.
# Submitted via: EZCDAudioConverter 7.1.1.1
#
DISCID=2c120215
DTITLE=Lee Towers - The Real... Lee Towers cd 1
DYEAR=2017
DGENRE=Pop
TTITLE0=You Never Walk Alone
TTITLE1=Frankie
TTITLE2=It's Raining In My Heart
TTITLE3=Somewhere
TTITLE4=Love Potion Number Nine
TTITLE5=Love's A Lovely Song
TTITLE6=But He Still Loves You
TTITLE7=Tears From Broken Children
TTITLE8=Happy Birthday, Baby
TTITLE9=One Upon A Time In The West (The Day You Said Goodbye)
TTITLE10=Everyday
TTITLE11=In The Evening Of My Lifetime
TTITLE12=Cute
TTITLE13=Song Of Joy
TTITLE14=The Hungry Years
TTITLE15=Bless You
TTITLE16=She Believes In Me
TTITLE17=C'est La Vie
TTITLE18=Let's Get The World... Singing Again
TTITLE19=Secret Love
TTITLE20=If Every Day Was Like Christmas
EXTD=
EXTT0=
EXTT1=
EXTT2=
EXTT3=
EXTT4=
EXTT5=
EXTT6=
EXTT7=
EXTT8=
EXTT9=
EXTT10=
EXTT11=
EXTT12=
EXTT13=
EXTT14=
EXTT15=
EXTT16=
EXTT17=
EXTT18=
EXTT19=
EXTT20=
PLAYORDER=
